<?xml version="1.0" encoding="UTF-8"?>
<svg version="1.1" xmlns="http://www.w3.org/2000/svg" width="180" height="180">
<path d="M0 0 C6.60183567 -0.10150385 13.20346976 -0.17150894 19.8059082 -0.21972656 C22.05142741 -0.2398294 24.29689435 -0.26711605 26.54223633 -0.30175781 C29.7717784 -0.3503331 33.00062775 -0.37298237 36.23046875 -0.390625 C37.73386055 -0.42159271 37.73386055 -0.42159271 39.2676239 -0.45318604 C43.70350849 -0.45461086 46.25923501 -0.45233118 50.1105957 1.89941406 C53.40669376 5.5639221 53.12375783 7.9766107 53.12025452 12.84622192 C53.12110894 13.55846888 53.12196337 14.27071584 53.12284368 15.00454605 C53.12449728 17.40295823 53.11897907 19.80130124 53.11352539 22.19970703 C53.11324347 23.91426593 53.11340135 25.62882496 53.1139679 27.34338379 C53.11425567 32.00841634 53.10836218 36.67342336 53.10139394 41.33844995 C53.09515706 46.20983407 53.09455634 51.08121871 53.09336853 55.9526062 C53.0902562 65.18194634 53.08204414 74.41127468 53.07201904 83.64060962 C53.06085485 94.14589588 53.05534668 104.65118269 53.05032361 115.1564734 C53.03986145 136.77098886 53.02226391 158.38549369 53 180 C51.87787237 179.0551019 50.75813515 178.1073646 49.6394043 177.15844727 C49.01559372 176.63098404 48.39178314 176.10352081 47.74906921 175.56007385 C45.48872827 173.54397365 43.66516407 171.33006219 41.8125 168.9375 C38.3692464 164.61436899 34.77890275 160.52570283 31 156.5 C26.56809209 151.76934301 22.42085666 146.89492549 18.36328125 141.8359375 C15.1035809 137.92429708 11.64889693 134.20929776 8.16015625 130.50195312 C6.76187334 129.01207147 5.38050529 127.50636901 4 126 C3.29369446 125.35505081 2.58738892 124.71010162 1.85968018 124.04560852 C-1.02727788 119.31762133 -0.5242879 114.75915761 -0.45410156 109.32495117 C-0.45468567 108.144039 -0.45526978 106.96312683 -0.45587158 105.74642944 C-0.45356592 102.51721089 -0.4335367 99.28868994 -0.40557575 96.05961013 C-0.38053315 92.68172357 -0.37821787 89.30382261 -0.37347412 85.92585754 C-0.36105265 79.53331028 -0.32824258 73.14103737 -0.28807616 66.74861079 C-0.24333239 59.4693493 -0.22136491 52.19007456 -0.20129442 44.91070974 C-0.15950898 29.94032042 -0.08917336 14.97018768 0 0 Z " fill="#0CABBB" transform="translate(127,0)"/>
<path d="M0 0 C17.82 0 35.64 0 54 0 C54 39.6 54 79.2 54 120 C36.18 120 18.36 120 0 120 C0 80.4 0 40.8 0 0 Z " fill="#7072BA" transform="translate(63,0)"/>
<path d="M0 0 C0 39.6 0 79.2 0 120 C-47 120 -47 120 -52 116 C-53.16666325 113.6666735 -53.13307387 112.29275663 -53.14717102 109.69303894 C-53.15432632 108.78878677 -53.16148163 107.88453461 -53.16885376 106.95288086 C-53.17154266 105.95804687 -53.17423157 104.96321289 -53.17700195 103.93823242 C-53.18357315 102.89258621 -53.19014435 101.84694 -53.19691467 100.76960754 C-53.21667724 97.29822728 -53.22831638 93.82689032 -53.23828125 90.35546875 C-53.24235678 89.17202692 -53.2464323 87.98858509 -53.25063133 86.76928139 C-53.27150389 80.50658974 -53.28580095 74.2439201 -53.29516602 67.98120117 C-53.30623775 61.50444165 -53.34064347 55.02802502 -53.38033772 48.55138683 C-53.40645074 43.57830658 -53.4148531 38.6053087 -53.41844749 33.63216591 C-53.42332656 31.2443135 -53.43497781 28.85646509 -53.45348549 26.46867943 C-53.477765 23.12882488 -53.47693209 19.78986647 -53.4699707 16.44995117 C-53.48278076 15.46118988 -53.49559082 14.47242859 -53.50878906 13.45370483 C-53.47570838 9.10550209 -53.41765938 6.67782264 -51.09562683 2.90937805 C-38.48542148 -8.58009563 -17.0594632 0 0 0 Z " fill="#FF696F" transform="translate(53,0)"/>
</svg>
